<mxfile host="app.diagrams.net" agent="Mozilla/5.0 (Windows NT 10.0; Win64; x64) AppleWebKit/537.36 (KHTML, like Gecko) Chrome/130.0.0.0 Safari/537.36" version="24.8.4">
  <diagram id="C5RBs43oDa-KdzZeNtuy" name="Page-1">
    <mxGraphModel grid="1" page="1" gridSize="10" guides="1" tooltips="1" connect="1" arrows="1" fold="1" pageScale="1" pageWidth="980" pageHeight="1390" math="0" shadow="0">
      <root>
        <mxCell id="0" />
        <mxCell id="1" parent="0" />
        <mxCell id="ssCRBUMv7cV-8itSkRzB-92" value="Початок" style="rounded=1;whiteSpace=wrap;arcSize=50;strokeWidth=2;" vertex="1" parent="1">
          <mxGeometry x="-668.113010973937" y="40" width="170" height="35" as="geometry" />
        </mxCell>
        <mxCell id="ssCRBUMv7cV-8itSkRzB-93" value="Введіть натуральне&#xa; число: N" style="shape=parallelogram;perimeter=parallelogramPerimeter;fixedSize=1;strokeWidth=2;whiteSpace=wrap;" vertex="1" parent="1">
          <mxGeometry x="-668.113010973937" y="120" width="170" height="70" as="geometry" />
        </mxCell>
        <mxCell id="ssCRBUMv7cV-8itSkRzB-94" value="cin.fail() || N &lt;= 0" style="rhombus;strokeWidth=2;whiteSpace=wrap;" vertex="1" parent="1">
          <mxGeometry x="-668.111003657979" y="240" width="170" height="70" as="geometry" />
        </mxCell>
        <mxCell id="ssCRBUMv7cV-8itSkRzB-95" value="Повідомлення про помилку: &#xa; Введене значення не є натуральним числом" style="whiteSpace=wrap;strokeWidth=2;" vertex="1" parent="1">
          <mxGeometry x="-668.11" y="360" width="170" height="70" as="geometry" />
        </mxCell>
        <mxCell id="ssCRBUMv7cV-8itSkRzB-96" value="Очищення вхідного потоку &#xa; за допомогою cin.clear()" style="whiteSpace=wrap;strokeWidth=2;" vertex="1" parent="1">
          <mxGeometry x="-668.11" y="480" width="170" height="70" as="geometry" />
        </mxCell>
        <mxCell id="ssCRBUMv7cV-8itSkRzB-97" value="Ігнорування залишкових даних у вхідному потоці" style="whiteSpace=wrap;strokeWidth=2;" vertex="1" parent="1">
          <mxGeometry x="-668.11" y="600" width="170" height="70" as="geometry" />
        </mxCell>
        <mxCell id="ssCRBUMv7cV-8itSkRzB-99" value="Обчислення останньої цифри числа N: &#xa; lastDigit = N % 10" style="whiteSpace=wrap;strokeWidth=2;" vertex="1" parent="1">
          <mxGeometry x="-430" y="390" width="170" height="70" as="geometry" />
        </mxCell>
        <mxCell id="ssCRBUMv7cV-8itSkRzB-100" value="Присвоєння N змінній firstDigit" style="whiteSpace=wrap;strokeWidth=2;" vertex="1" parent="1">
          <mxGeometry x="-430" y="520" width="170" height="70" as="geometry" />
        </mxCell>
        <mxCell id="ssCRBUMv7cV-8itSkRzB-101" value="Ініціалізація factor = 1" style="whiteSpace=wrap;strokeWidth=2;" vertex="1" parent="1">
          <mxGeometry x="-430" y="650" width="170" height="70" as="geometry" />
        </mxCell>
        <mxCell id="ssCRBUMv7cV-8itSkRzB-102" value="firstDigit &gt;= 10?" style="rhombus;strokeWidth=2;whiteSpace=wrap;" vertex="1" parent="1">
          <mxGeometry x="-429.9875" y="780" width="170" height="70" as="geometry" />
        </mxCell>
        <mxCell id="ssCRBUMv7cV-8itSkRzB-103" value="firstDigit /= 10" style="whiteSpace=wrap;strokeWidth=2;" vertex="1" parent="1">
          <mxGeometry x="-650" y="780" width="170" height="70" as="geometry" />
        </mxCell>
        <mxCell id="ssCRBUMv7cV-8itSkRzB-104" value="factor = 10" style="whiteSpace=wrap;strokeWidth=2;" vertex="1" parent="1">
          <mxGeometry x="-650" y="900" width="170" height="70" as="geometry" />
        </mxCell>
        <mxCell id="ssCRBUMv7cV-8itSkRzB-105" value="Обчислення нового числа &#xa; newNumber = (N % factor) * 10 + lastDigit * factor + firstDigit" style="whiteSpace=wrap;strokeWidth=2;" vertex="1" parent="1">
          <mxGeometry x="-430" y="1020" width="170" height="70" as="geometry" />
        </mxCell>
        <mxCell id="ssCRBUMv7cV-8itSkRzB-132" value="" style="edgeStyle=orthogonalEdgeStyle;rounded=0;orthogonalLoop=1;jettySize=auto;html=1;" edge="1" parent="1" source="ssCRBUMv7cV-8itSkRzB-106" target="ssCRBUMv7cV-8itSkRzB-107">
          <mxGeometry relative="1" as="geometry" />
        </mxCell>
        <mxCell id="ssCRBUMv7cV-8itSkRzB-106" value="Виведення нового числа" style="shape=parallelogram;perimeter=parallelogramPerimeter;fixedSize=1;strokeWidth=2;whiteSpace=wrap;" vertex="1" parent="1">
          <mxGeometry x="-429.985" y="1139" width="170" height="70" as="geometry" />
        </mxCell>
        <mxCell id="ssCRBUMv7cV-8itSkRzB-107" value="Кінець програми" style="rounded=1;arcSize=40;strokeWidth=2" vertex="1" parent="1">
          <mxGeometry x="-429.995" y="1250" width="170" height="35" as="geometry" />
        </mxCell>
        <mxCell id="ssCRBUMv7cV-8itSkRzB-108" value="" style="startArrow=none;endArrow=block;exitX=0.5;exitY=1;entryX=0.5;entryY=0;rounded=0;edgeStyle=orthogonalEdgeStyle;orthogonal=1;" edge="1" parent="1" source="ssCRBUMv7cV-8itSkRzB-92" target="ssCRBUMv7cV-8itSkRzB-93">
          <mxGeometry relative="1" as="geometry" />
        </mxCell>
        <mxCell id="ssCRBUMv7cV-8itSkRzB-109" value="" style="startArrow=none;endArrow=block;exitX=0.5;exitY=1;entryX=0.5;entryY=0;rounded=0;edgeStyle=orthogonalEdgeStyle;orthogonal=1;exitDx=0;exitDy=0;" edge="1" parent="1" source="ssCRBUMv7cV-8itSkRzB-93" target="ssCRBUMv7cV-8itSkRzB-94">
          <mxGeometry relative="1" as="geometry" />
        </mxCell>
        <mxCell id="ssCRBUMv7cV-8itSkRzB-110" value="Так" style="startArrow=none;endArrow=block;exitX=0.5;exitY=1;entryX=0.5;entryY=0;rounded=0;edgeStyle=orthogonalEdgeStyle;orthogonal=1;" edge="1" parent="1" source="ssCRBUMv7cV-8itSkRzB-94" target="ssCRBUMv7cV-8itSkRzB-95">
          <mxGeometry relative="1" as="geometry" />
        </mxCell>
        <mxCell id="ssCRBUMv7cV-8itSkRzB-111" value="" style="startArrow=none;endArrow=block;exitX=0.5;exitY=1;entryX=0.5;entryY=0;rounded=0;edgeStyle=orthogonalEdgeStyle;orthogonal=1;" edge="1" parent="1" source="ssCRBUMv7cV-8itSkRzB-95" target="ssCRBUMv7cV-8itSkRzB-96">
          <mxGeometry relative="1" as="geometry" />
        </mxCell>
        <mxCell id="ssCRBUMv7cV-8itSkRzB-112" value="" style="startArrow=none;endArrow=block;exitX=0.5;exitY=1;entryX=0.5;entryY=0;rounded=0;edgeStyle=orthogonalEdgeStyle;orthogonal=1;entryDx=0;entryDy=0;" edge="1" parent="1" source="ssCRBUMv7cV-8itSkRzB-96" target="ssCRBUMv7cV-8itSkRzB-97">
          <mxGeometry relative="1" as="geometry" />
        </mxCell>
        <mxCell id="ssCRBUMv7cV-8itSkRzB-113" value="" style="startArrow=none;endArrow=block;exitX=0.5;exitY=1;entryX=0;entryY=0.5;rounded=0;edgeStyle=orthogonalEdgeStyle;orthogonal=1;exitDx=0;exitDy=0;entryDx=0;entryDy=0;" edge="1" parent="1" source="ssCRBUMv7cV-8itSkRzB-97" target="ssCRBUMv7cV-8itSkRzB-93">
          <mxGeometry relative="1" as="geometry">
            <Array as="points">
              <mxPoint x="-582.94" y="700" />
              <mxPoint x="-739.94" y="700" />
              <mxPoint x="-739.94" y="155" />
            </Array>
          </mxGeometry>
        </mxCell>
        <mxCell id="ssCRBUMv7cV-8itSkRzB-114" value="Ні" style="startArrow=none;endArrow=block;exitX=1;exitY=0.5;entryX=0;entryY=0.5;rounded=0;edgeStyle=orthogonalEdgeStyle;orthogonal=1;entryDx=0;entryDy=0;exitDx=0;exitDy=0;" edge="1" parent="1" source="ssCRBUMv7cV-8itSkRzB-94" target="ssCRBUMv7cV-8itSkRzB-98">
          <mxGeometry relative="1" as="geometry" />
        </mxCell>
        <mxCell id="ssCRBUMv7cV-8itSkRzB-115" value="" style="startArrow=none;endArrow=block;exitX=0.5;exitY=1;entryX=0.5;entryY=0;rounded=0;edgeStyle=orthogonalEdgeStyle;orthogonal=1;" edge="1" parent="1" source="ssCRBUMv7cV-8itSkRzB-98" target="ssCRBUMv7cV-8itSkRzB-99">
          <mxGeometry relative="1" as="geometry" />
        </mxCell>
        <mxCell id="ssCRBUMv7cV-8itSkRzB-116" value="" style="startArrow=none;endArrow=block;exitX=0.5;exitY=1.01;entryX=0.5;entryY=0.01;rounded=0;edgeStyle=orthogonalEdgeStyle;orthogonal=1;" edge="1" parent="1" source="ssCRBUMv7cV-8itSkRzB-99" target="ssCRBUMv7cV-8itSkRzB-100">
          <mxGeometry relative="1" as="geometry" />
        </mxCell>
        <mxCell id="ssCRBUMv7cV-8itSkRzB-117" value="" style="startArrow=none;endArrow=block;exitX=0.5;exitY=1;entryX=0.5;entryY=0;rounded=0;edgeStyle=orthogonalEdgeStyle;orthogonal=1;" edge="1" parent="1" source="ssCRBUMv7cV-8itSkRzB-100" target="ssCRBUMv7cV-8itSkRzB-101">
          <mxGeometry relative="1" as="geometry" />
        </mxCell>
        <mxCell id="ssCRBUMv7cV-8itSkRzB-118" value="" style="startArrow=none;endArrow=block;exitX=0.5;exitY=1;entryX=0.5;entryY=0;rounded=0;edgeStyle=orthogonalEdgeStyle;orthogonal=1;" edge="1" parent="1" source="ssCRBUMv7cV-8itSkRzB-101" target="ssCRBUMv7cV-8itSkRzB-102">
          <mxGeometry relative="1" as="geometry" />
        </mxCell>
        <mxCell id="ssCRBUMv7cV-8itSkRzB-119" value="Так" style="startArrow=none;endArrow=block;exitX=0;exitY=0.5;entryX=1;entryY=0.5;rounded=0;edgeStyle=orthogonalEdgeStyle;orthogonal=1;entryDx=0;entryDy=0;exitDx=0;exitDy=0;" edge="1" parent="1" source="ssCRBUMv7cV-8itSkRzB-102" target="ssCRBUMv7cV-8itSkRzB-103">
          <mxGeometry relative="1" as="geometry" />
        </mxCell>
        <mxCell id="ssCRBUMv7cV-8itSkRzB-120" value="" style="startArrow=none;endArrow=block;exitX=0.5;exitY=0.99;entryX=0.5;entryY=0;rounded=0;edgeStyle=orthogonalEdgeStyle;orthogonal=1;entryDx=0;entryDy=0;" edge="1" parent="1" source="ssCRBUMv7cV-8itSkRzB-103" target="ssCRBUMv7cV-8itSkRzB-104">
          <mxGeometry relative="1" as="geometry" />
        </mxCell>
        <mxCell id="ssCRBUMv7cV-8itSkRzB-121" value="" style="startArrow=none;endArrow=block;exitX=0;exitY=0.5;rounded=0;edgeStyle=orthogonalEdgeStyle;orthogonal=1;exitDx=0;exitDy=0;" edge="1" parent="1" source="ssCRBUMv7cV-8itSkRzB-104">
          <mxGeometry relative="1" as="geometry">
            <Array as="points">
              <mxPoint x="-690" y="935" />
              <mxPoint x="-690" y="750" />
            </Array>
            <mxPoint x="-347" y="750" as="targetPoint" />
          </mxGeometry>
        </mxCell>
        <mxCell id="ssCRBUMv7cV-8itSkRzB-122" value="Ні" style="startArrow=none;endArrow=block;exitX=0.5;exitY=1;entryX=0.5;entryY=0;rounded=0;edgeStyle=orthogonalEdgeStyle;orthogonal=1;exitDx=0;exitDy=0;entryDx=0;entryDy=0;" edge="1" parent="1" source="ssCRBUMv7cV-8itSkRzB-102" target="ssCRBUMv7cV-8itSkRzB-129">
          <mxGeometry relative="1" as="geometry" />
        </mxCell>
        <mxCell id="ssCRBUMv7cV-8itSkRzB-123" value="" style="startArrow=none;endArrow=block;exitX=0.5;exitY=1;entryX=0.5;entryY=-0.01;rounded=0;edgeStyle=orthogonalEdgeStyle;orthogonal=1;" edge="1" parent="1" source="ssCRBUMv7cV-8itSkRzB-105" target="ssCRBUMv7cV-8itSkRzB-106">
          <mxGeometry relative="1" as="geometry" />
        </mxCell>
        <mxCell id="ssCRBUMv7cV-8itSkRzB-98" value="Зберігається значення N в змінну originalN" style="whiteSpace=wrap;strokeWidth=2;" vertex="1" parent="1">
          <mxGeometry x="-429.99" y="240" width="170" height="70" as="geometry" />
        </mxCell>
        <mxCell id="ssCRBUMv7cV-8itSkRzB-131" value="" style="edgeStyle=orthogonalEdgeStyle;rounded=0;orthogonalLoop=1;jettySize=auto;html=1;" edge="1" parent="1" source="ssCRBUMv7cV-8itSkRzB-129" target="ssCRBUMv7cV-8itSkRzB-105">
          <mxGeometry relative="1" as="geometry" />
        </mxCell>
        <mxCell id="ssCRBUMv7cV-8itSkRzB-129" value="int middlePart = (N % factor) / 10;" style="rounded=0;whiteSpace=wrap;html=1;" vertex="1" parent="1">
          <mxGeometry x="-430" y="900" width="170" height="70" as="geometry" />
        </mxCell>
      </root>
    </mxGraphModel>
  </diagram>
</mxfile>
